<?xml version="1.0" encoding="UTF-8"?>
<svg id="Calque_1" data-name="Calque 1" xmlns="http://www.w3.org/2000/svg" viewBox="0 0 1080 1080">
  <defs>
    <style>
      .cls-1 {
        fill: #1b263b;
      }
    </style>
  </defs>
  <path class="cls-1" d="M826.76,222.03H253.24c-64.28,0-116.43,52.16-116.43,116.43v400.59c0,64.28,52.16,116.43,116.43,116.43h573.51c64.28,0,116.43-52.16,116.43-116.43v-400.59c0-64.28-52.37-116.43-116.43-116.43h0ZM826.76,277.65c4.76,0,9.31.65,13.85,1.73l-241.96,274.42c-14.93,16.88-36.14,26.4-58.65,26.4s-43.72-9.74-58.65-26.4l-241.96-274.42c4.54-1.08,9.09-1.73,13.85-1.73h573.51ZM887.57,739.05c0,33.54-27.27,60.81-60.81,60.81H253.24c-33.54,0-60.81-27.27-60.81-60.81v-400.59c0-8.22,1.73-16.02,4.54-22.94l242.61,275.29c25.32,28.78,61.9,45.23,100.42,45.23s74.88-16.45,100.42-45.23l242.61-275.29c3.03,7.14,4.54,14.93,4.54,22.94v400.59h0Z"/>
</svg>