<?xml version="1.0" encoding="UTF-8"?>
<svg id="Calque_1" data-name="Calque 1" xmlns="http://www.w3.org/2000/svg" viewBox="0 0 1080 1080">
  <defs>
    <style>
      .cls-1 {
        fill: #1b263b;
      }
    </style>
  </defs>
  <path class="cls-1" d="M252.11,281.18c-2.91,3.2-5.66,6.64-8.17,10.21-23.01,20.37-41.19,65.18-30.5,120.4,45.9,239.09,247.31,421.24,489.76,442.99,5.22.47,10.43.71,15.56.71,27.87,0,54.13-6.86,75.06-19.73,10.1-5.84,19.11-13.1,26.76-21.59l20.82-23.02c40.61-44.92,37.11-114.48-7.77-155.09l-35.15-31.78c-20.24-18.31-46.39-28.39-73.62-28.39-30.98,0-60.66,13.18-81.47,36.16l-20.8,23.01c-8.14,8.99-14.63,19.09-19.4,30.16-83-34.91-151.08-97.23-193.2-176.84,15.25-6.19,28.98-15.78,40.13-28.12l20.8-22.99c19.68-21.77,29.7-49.89,28.23-79.17-1.46-29.29-14.23-56.26-36-75.95l-35.13-31.74c-20.24-18.29-46.38-28.37-73.62-28.37-31.01,0-60.72,13.16-81.48,36.13l-20.8,23.02h0ZM293.86,277.09c15.43-17.05,37.49-26.83,60.54-26.83,20.24,0,39.66,7.48,54.69,21.08l35.13,31.74c16.16,14.63,25.66,34.65,26.74,56.42,1.09,21.77-6.35,42.66-20.97,58.82l-20.8,22.99h0c-9.99,11.05-22.75,19.13-36.91,23.41l-6.33,1.89c-3.99,1.2-7.24,4.08-8.88,7.9-1.66,3.82-1.55,8.17.31,11.89l2.95,5.93c46.08,92.55,124.4,164.43,220.52,202.37l5.48,2.15c3.6,1.42,7.61,1.29,11.14-.35,3.51-1.64,6.19-4.64,7.41-8.32l1.86-5.53c3.6-10.68,9.26-20.35,16.84-28.7l20.82-23.01c15.45-17.07,37.51-26.86,60.54-26.86,20.22,0,39.64,7.5,54.69,21.09l35.13,31.78c33.36,30.18,35.95,81.87,5.79,115.23l-20.82,23.02c-5.68,6.3-12.39,11.72-20.28,16.27-19.97,12.25-46.1,17.65-73.64,15.14-230-20.62-421.04-193.42-464.57-420.2-9.21-47.54,8.1-82.47,21.99-94.35.46-.38.87-.8,1.27-1.26l.96-1.06c.42-.46.8-.95,1.15-1.46,1.98-2.88,4.19-5.64,6.52-8.23l20.8-23.02-.04.04Z"/>
</svg>